<?xml version="1.0" encoding="UTF-8" standalone="no"?>
<!DOCTYPE svg PUBLIC "-//W3C//DTD SVG 1.1//EN" "http://www.w3.org/Graphics/SVG/1.1/DTD/svg11.dtd">
<svg width="100%" height="100%" viewBox="0 0 512 512" version="1.1" xmlns="http://www.w3.org/2000/svg" xmlns:xlink="http://www.w3.org/1999/xlink" xml:space="preserve" xmlns:serif="http://www.serif.com/" style="fill-rule:evenodd;clip-rule:evenodd;stroke-linejoin:round;stroke-miterlimit:2;">
    <rect x="0" y="0" width="512" height="512" style="fill-rule:nonzero;"/>
    <g>
        <path d="M138.798,35.342L28.73,114.268L124.507,143.363L235.812,56.273L138.798,35.343L138.798,35.342ZM251.784,66.424L133.737,156.384L184.807,287.486L193.341,280.031L197.571,264.323C191.696,260.495 187.919,251.99 188.491,243.873C189.051,236.003 193.569,230.363 199.488,230.146C200.682,230.102 201.9,230.281 203.108,230.676C204.169,231.029 205.214,231.548 206.221,232.22L214.161,202.74C214.257,202.386 214.375,202.039 214.514,201.7C214.533,201.657 214.552,201.615 214.572,201.572C214.669,201.339 214.776,201.111 214.892,200.887C214.921,200.836 214.951,200.785 214.982,200.734C215.097,200.521 215.22,200.312 215.352,200.109C215.518,199.859 215.696,199.618 215.886,199.386C215.908,199.361 215.93,199.337 215.952,199.312C216.123,199.106 216.303,198.908 216.492,198.718C216.699,198.51 216.916,198.312 217.142,198.125C217.143,198.124 217.145,198.124 217.146,198.123C217.296,198.004 217.449,197.89 217.606,197.781C217.693,197.714 217.782,197.648 217.872,197.584C218.036,197.479 218.203,197.379 218.374,197.284C218.463,197.23 218.553,197.178 218.644,197.127C218.789,197.054 218.935,196.984 219.084,196.919C219.209,196.857 219.336,196.797 219.464,196.741C219.608,196.687 219.754,196.636 219.901,196.589C220.036,196.538 220.173,196.49 220.311,196.446C220.445,196.41 220.58,196.376 220.715,196.346C220.871,196.304 221.027,196.266 221.185,196.232C221.354,196.204 221.524,196.18 221.695,196.162C221.818,196.143 221.941,196.126 222.065,196.112C222.068,196.112 222.072,196.112 222.075,196.112C222.078,196.111 222.082,196.11 222.085,196.109L255.709,193.236C257.275,187.396 261.238,183.644 266.035,183.459C267.23,183.415 268.448,183.593 269.657,183.989C272.916,185.066 275.95,187.673 278.184,191.316L291.227,190.203L251.785,66.42L251.784,66.424ZM137.25,74.03C145.941,74.211 151.321,77.883 150.048,82.764C148.576,88.414 138.673,93.83 128.11,94.762C119.299,95.539 112.401,92.987 111.462,88.602C111.295,87.82 111.321,87 111.54,86.16C112.767,81.446 119.895,76.771 128.743,74.876C130.319,74.539 131.909,74.298 133.478,74.16C134.762,74.047 136.025,74.004 137.248,74.03L137.25,74.03ZM237.478,97.547C237.479,97.547 237.479,97.547 237.48,97.547C238.674,97.503 239.892,97.682 241.1,98.077C248.431,100.476 253.898,110.379 253.212,120.017C252.714,127.004 249.09,132.318 244.016,133.503C242.269,133.91 240.424,133.812 238.595,133.213C233.279,131.475 228.744,125.725 227.086,118.621C226.516,116.178 226.31,113.677 226.481,111.273C227.042,103.403 231.56,97.764 237.479,97.547L237.478,97.547ZM24.22,131.71L71.212,245.834L165.448,286.214L119.46,160.644L24.22,131.709L24.22,131.71ZM172.106,149.14C173.301,149.095 174.519,149.273 175.728,149.668C183.058,152.068 188.525,161.971 187.838,171.608C187.34,178.596 183.717,183.91 178.642,185.094C176.896,185.502 175.051,185.403 173.222,184.805C165.891,182.406 160.424,172.503 161.11,162.865C161.671,154.996 166.188,149.357 172.106,149.139L172.106,149.14ZM96.983,162.156C102.092,161.878 109.47,168.439 113.938,177.234C118.273,185.766 118.606,193.914 114.714,196.229C114.345,196.448 113.944,196.612 113.513,196.719C108.482,197.964 100.396,191.221 95.6,181.78C90.806,172.342 90.997,163.551 96.024,162.3C96.33,162.223 96.65,162.175 96.984,162.156L96.983,162.156ZM360.376,202.366L248.274,211.943L362.036,291.869L475.634,274.913L360.376,202.363L360.376,202.366ZM70.82,212.022C75.929,211.742 83.308,218.304 87.777,227.1C92.574,236.541 92.382,245.336 87.352,246.584C82.321,247.83 74.235,241.087 69.439,231.646C64.644,222.207 64.835,213.413 69.864,212.164C70.17,212.089 70.49,212.042 70.824,212.024L70.82,212.022ZM228.198,219.835L186.66,374.023L302.276,473.477L349.423,305.007L228.198,219.837L228.198,219.835ZM355.185,231.003C361.479,231.12 368.859,232.912 374.878,235.786C382.085,239.228 386.156,243.655 385.23,247.046C384.904,248.242 383.968,249.259 382.485,250.03C378.283,252.215 370.186,252.164 361.893,249.901C358.968,249.102 356.142,248.062 353.599,246.848C343.589,242.068 340.154,235.638 345.989,232.604C348.133,231.49 351.339,230.932 355.184,231.004L355.185,231.003ZM487.78,291.3L366.9,309.343L320.077,476.659L436.374,444.889L487.78,291.3ZM305.972,302.1C307.384,302.102 308.81,302.419 310.21,303.043C316.802,305.984 321.993,315.358 323.09,326.297C323.376,329.15 323.373,332.011 323.083,334.763C321.647,348.371 313.474,356.448 304.978,352.656C298.386,349.715 293.194,340.341 292.097,329.401C291.811,326.549 291.814,323.688 292.104,320.936C293.277,309.826 298.974,302.088 305.972,302.1ZM460.058,313.736C463.32,313.639 466.025,315.096 467.731,317.866C471.876,324.602 469.088,337.438 461.555,346.301C454.022,355.164 444.413,356.914 440.268,350.179C436.123,343.444 438.91,330.609 446.443,321.745C450.631,316.818 455.651,313.866 460.059,313.737L460.058,313.736ZM391.362,324.4C394.624,324.304 397.329,325.76 399.034,328.53C403.179,335.266 400.391,348.102 392.858,356.965C385.325,365.827 375.716,367.578 371.571,360.842C367.427,354.106 370.215,341.271 377.748,332.408C381.936,327.482 386.955,324.529 391.363,324.4L391.362,324.4ZM217.366,337.705C218.779,337.707 220.205,338.025 221.606,338.65C228.197,341.592 233.389,350.965 234.485,361.904C234.771,364.756 234.768,367.617 234.478,370.37C233.364,380.927 228.16,388.502 221.566,389.163C219.846,389.335 218.091,389.031 216.372,388.264C209.78,385.323 204.589,375.949 203.492,365.01C203.206,362.157 203.209,359.296 203.499,356.544C204.671,345.433 210.367,337.693 217.365,337.704L217.366,337.705ZM429.644,398.575C432.905,398.479 435.609,399.935 437.314,402.705C441.459,409.44 438.672,422.275 431.14,431.139C423.607,440.001 413.997,441.751 409.853,435.015C405.708,428.28 408.495,415.445 416.028,406.581C420.216,401.654 425.236,398.702 429.644,398.573L429.644,398.575ZM359.312,418.063C362.573,417.968 365.277,419.425 366.982,422.195C371.127,428.93 368.34,441.765 360.808,450.629C354.964,457.503 347.68,460.323 342.736,457.625C341.446,456.921 340.359,455.866 339.521,454.503C335.376,447.767 338.164,434.932 345.697,426.069C349.885,421.142 354.905,418.19 359.313,418.062L359.312,418.063Z" style="fill:url(#_Linear1);fill-rule:nonzero;"/>
    </g>
    <defs>
        <linearGradient id="_Linear1" x1="0" y1="0" x2="1" y2="0" gradientUnits="userSpaceOnUse" gradientTransform="matrix(463.56,0,0,441.317,24.22,256.0005)"><stop offset="0" style="stop-color:rgb(200,100,0);stop-opacity:1"/><stop offset="1" style="stop-color:rgb(120,46,34);stop-opacity:1"/></linearGradient>
    </defs>
</svg>
